<?xml version="1.0" encoding="UTF-8" standalone="no"?>
<!DOCTYPE svg PUBLIC "-//W3C//DTD SVG 1.1//EN"
 "http://www.w3.org/Graphics/SVG/1.1/DTD/svg11.dtd">
<!-- Generated by graphviz version 2.40.1 (20161225.0304)
 -->
<!-- Title: dependencies Pages: 1 -->
<svg width="2633pt" height="284pt"
 viewBox="0.00 0.00 2633.00 284.00" xmlns="http://www.w3.org/2000/svg" xmlns:xlink="http://www.w3.org/1999/xlink">
<g id="graph0" class="graph" transform="scale(1 1) rotate(0) translate(4 280)">
<title>dependencies</title>
<polygon fill="#ffffff" stroke="transparent" points="-4,4 -4,-280 2629,-280 2629,4 -4,4"/>
<text text-anchor="start" x="1291.5091" y="-42.4" font-family="sans-serif" font-weight="bold" font-size="14.00" fill="#000000">Legend</text>
<polygon fill="#ffffb3" stroke="transparent" points="1078.5,-10 1078.5,-30 1098.5,-30 1098.5,-10 1078.5,-10"/>
<text text-anchor="start" x="1102.129" y="-15.4" font-family="sans-serif" font-size="14.00" fill="#000000"> &#160;Declarations</text>
<polygon fill="#8dd3c7" stroke="transparent" points="1191.5,-10 1191.5,-30 1211.5,-30 1211.5,-10 1191.5,-10"/>
<text text-anchor="start" x="1215.2251" y="-15.4" font-family="sans-serif" font-size="14.00" fill="#000000"> &#160;Module</text>
<polygon fill="#80b1d3" stroke="transparent" points="1277.5,-10 1277.5,-30 1297.5,-30 1297.5,-10 1277.5,-10"/>
<text text-anchor="start" x="1301.2812" y="-15.4" font-family="sans-serif" font-size="14.00" fill="#000000"> &#160;Bootstrap</text>
<polygon fill="#fdb462" stroke="transparent" points="1374.5,-10 1374.5,-30 1394.5,-30 1394.5,-10 1374.5,-10"/>
<text text-anchor="start" x="1398.1732" y="-15.4" font-family="sans-serif" font-size="14.00" fill="#000000"> &#160;Providers</text>
<polygon fill="#fb8072" stroke="transparent" points="1470.5,-10 1470.5,-30 1490.5,-30 1490.5,-10 1470.5,-10"/>
<text text-anchor="start" x="1494.2258" y="-15.4" font-family="sans-serif" font-size="14.00" fill="#000000"> &#160;Exports</text>
<g id="clust1" class="cluster">
<title>cluster_StageComponentsModule</title>
<polygon fill="none" stroke="#000000" stroke-dasharray="1,5" points="8,-70 8,-268 2617,-268 2617,-70 8,-70"/>
</g>
<g id="clust2" class="cluster">
<title>cluster_StageComponentsModule_declarations</title>
<polygon fill="none" stroke="#000000" points="47,-78 47,-130 2590,-130 2590,-78 47,-78"/>
</g>
<g id="clust18" class="cluster">
<title>cluster_StageComponentsModule_exports</title>
<polygon fill="none" stroke="#000000" points="16,-208 16,-260 2609,-260 2609,-208 16,-208"/>
</g>
<!-- Stage1Component -->
<g id="node1" class="node">
<title>Stage1Component</title>
<polygon fill="#ffffb3" stroke="#000000" points="2581.9356,-122 2462.0644,-122 2462.0644,-86 2581.9356,-86 2581.9356,-122"/>
<text text-anchor="middle" x="2522" y="-99.8" font-family="Times,serif" font-size="14.00" fill="#000000">Stage1Component</text>
</g>
<!-- StageComponentsModule -->
<g id="node15" class="node">
<title>StageComponentsModule</title>
<polygon fill="#8dd3c7" stroke="#000000" points="1359.9298,-187 1356.9298,-191 1335.9298,-191 1332.9298,-187 1198.0702,-187 1198.0702,-151 1359.9298,-151 1359.9298,-187"/>
<text text-anchor="middle" x="1279" y="-164.8" font-family="Times,serif" font-size="14.00" fill="#000000">StageComponentsModule</text>
</g>
<!-- Stage1Component&#45;&gt;StageComponentsModule -->
<g id="edge1" class="edge">
<title>Stage1Component&#45;&gt;StageComponentsModule</title>
<path fill="none" stroke="#000000" d="M2470.4076,-122.1686C2470.4076,-141.0898 2470.4076,-168 2470.4076,-168 2470.4076,-168 1369.9536,-168 1369.9536,-168"/>
<polygon fill="#000000" stroke="#000000" points="1369.9536,-164.5001 1359.9536,-168 1369.9536,-171.5001 1369.9536,-164.5001"/>
</g>
<!-- Stage2Component -->
<g id="node2" class="node">
<title>Stage2Component</title>
<polygon fill="#ffffb3" stroke="#000000" points="2444.9356,-122 2325.0644,-122 2325.0644,-86 2444.9356,-86 2444.9356,-122"/>
<text text-anchor="middle" x="2385" y="-99.8" font-family="Times,serif" font-size="14.00" fill="#000000">Stage2Component</text>
</g>
<!-- Stage2Component&#45;&gt;StageComponentsModule -->
<g id="edge2" class="edge">
<title>Stage2Component&#45;&gt;StageComponentsModule</title>
<path fill="none" stroke="#000000" d="M2331.4076,-122.2667C2331.4076,-140.5552 2331.4076,-166 2331.4076,-166 2331.4076,-166 1369.8332,-166 1369.8332,-166"/>
<polygon fill="#000000" stroke="#000000" points="1369.8332,-162.5001 1359.8332,-166 1369.8332,-169.5001 1369.8332,-162.5001"/>
</g>
<!-- Stage3Component -->
<g id="node3" class="node">
<title>Stage3Component</title>
<polygon fill="#ffffb3" stroke="#000000" points="2307.9356,-122 2188.0644,-122 2188.0644,-86 2307.9356,-86 2307.9356,-122"/>
<text text-anchor="middle" x="2248" y="-99.8" font-family="Times,serif" font-size="14.00" fill="#000000">Stage3Component</text>
</g>
<!-- Stage3Component&#45;&gt;StageComponentsModule -->
<g id="edge3" class="edge">
<title>Stage3Component&#45;&gt;StageComponentsModule</title>
<path fill="none" stroke="#000000" d="M2192.4076,-122.0225C2192.4076,-139.3734 2192.4076,-163 2192.4076,-163 2192.4076,-163 1370.0588,-163 1370.0588,-163"/>
<polygon fill="#000000" stroke="#000000" points="1370.0589,-159.5001 1360.0588,-163 1370.0588,-166.5001 1370.0589,-159.5001"/>
</g>
<!-- Stage4Component -->
<g id="node4" class="node">
<title>Stage4Component</title>
<polygon fill="#ffffb3" stroke="#000000" points="2170.9356,-122 2051.0644,-122 2051.0644,-86 2170.9356,-86 2170.9356,-122"/>
<text text-anchor="middle" x="2111" y="-99.8" font-family="Times,serif" font-size="14.00" fill="#000000">Stage4Component</text>
</g>
<!-- Stage4Component&#45;&gt;StageComponentsModule -->
<g id="edge4" class="edge">
<title>Stage4Component&#45;&gt;StageComponentsModule</title>
<path fill="none" stroke="#000000" d="M2132.3225,-122.0352C2132.3225,-138.7344 2132.3225,-161 2132.3225,-161 2132.3225,-161 1370.0478,-161 1370.0478,-161"/>
<polygon fill="#000000" stroke="#000000" points="1370.0478,-157.5001 1360.0478,-161 1370.0478,-164.5001 1370.0478,-157.5001"/>
</g>
<!-- Stage4_DefineLevelCategoriesComponent -->
<g id="node5" class="node">
<title>Stage4_DefineLevelCategoriesComponent</title>
<polygon fill="#ffffb3" stroke="#000000" points="2033.2611,-122 1776.7389,-122 1776.7389,-86 2033.2611,-86 2033.2611,-122"/>
<text text-anchor="middle" x="1905" y="-99.8" font-family="Times,serif" font-size="14.00" fill="#000000">Stage4_DefineLevelCategoriesComponent</text>
</g>
<!-- Stage4_DefineLevelCategoriesComponent&#45;&gt;StageComponentsModule -->
<g id="edge5" class="edge">
<title>Stage4_DefineLevelCategoriesComponent&#45;&gt;StageComponentsModule</title>
<path fill="none" stroke="#000000" d="M1948.1268,-122.0091C1948.1268,-138.0494 1948.1268,-159 1948.1268,-159 1948.1268,-159 1370.0455,-159 1370.0455,-159"/>
<polygon fill="#000000" stroke="#000000" points="1370.0455,-155.5001 1360.0455,-159 1370.0454,-162.5001 1370.0455,-155.5001"/>
</g>
<!-- Stage4_ReviewLevelsComponent -->
<g id="node6" class="node">
<title>Stage4_ReviewLevelsComponent</title>
<polygon fill="#ffffb3" stroke="#000000" points="1759.0154,-122 1552.9846,-122 1552.9846,-86 1759.0154,-86 1759.0154,-122"/>
<text text-anchor="middle" x="1656" y="-99.8" font-family="Times,serif" font-size="14.00" fill="#000000">Stage4_ReviewLevelsComponent</text>
</g>
<!-- Stage4_ReviewLevelsComponent&#45;&gt;StageComponentsModule -->
<g id="edge6" class="edge">
<title>Stage4_ReviewLevelsComponent&#45;&gt;StageComponentsModule</title>
<path fill="none" stroke="#000000" d="M1621.5809,-122.1871C1621.5809,-137.1824 1621.5809,-156 1621.5809,-156 1621.5809,-156 1369.7531,-156 1369.7531,-156"/>
<polygon fill="#000000" stroke="#000000" points="1369.7531,-152.5001 1359.7531,-156 1369.753,-159.5001 1369.7531,-152.5001"/>
</g>
<!-- Stage5Component -->
<g id="node7" class="node">
<title>Stage5Component</title>
<polygon fill="#ffffb3" stroke="#000000" points="1534.9356,-122 1415.0644,-122 1415.0644,-86 1534.9356,-86 1534.9356,-122"/>
<text text-anchor="middle" x="1475" y="-99.8" font-family="Times,serif" font-size="14.00" fill="#000000">Stage5Component</text>
</g>
<!-- Stage5Component&#45;&gt;StageComponentsModule -->
<g id="edge7" class="edge">
<title>Stage5Component&#45;&gt;StageComponentsModule</title>
<path fill="none" stroke="#000000" d="M1454.3442,-122.0511C1454.3442,-136.373 1454.3442,-154 1454.3442,-154 1454.3442,-154 1369.7435,-154 1369.7435,-154"/>
<polygon fill="#000000" stroke="#000000" points="1369.7436,-150.5001 1359.7435,-154 1369.7435,-157.5001 1369.7436,-150.5001"/>
</g>
<!-- Stage5_FrameBuilderOverviewComponent -->
<g id="node8" class="node">
<title>Stage5_FrameBuilderOverviewComponent</title>
<polygon fill="#ffffb3" stroke="#000000" points="1397.8847,-122 1138.1153,-122 1138.1153,-86 1397.8847,-86 1397.8847,-122"/>
<text text-anchor="middle" x="1268" y="-99.8" font-family="Times,serif" font-size="14.00" fill="#000000">Stage5_FrameBuilderOverviewComponent</text>
</g>
<!-- Stage5_FrameBuilderOverviewComponent&#45;&gt;StageComponentsModule -->
<g id="edge8" class="edge">
<title>Stage5_FrameBuilderOverviewComponent&#45;&gt;StageComponentsModule</title>
<path fill="none" stroke="#000000" d="M1279,-122.1061C1279,-122.1061 1279,-140.991 1279,-140.991"/>
<polygon fill="#000000" stroke="#000000" points="1275.5001,-140.9909 1279,-150.991 1282.5001,-140.991 1275.5001,-140.9909"/>
</g>
<!-- Stage5_RecapComponent -->
<g id="node9" class="node">
<title>Stage5_RecapComponent</title>
<polygon fill="#ffffb3" stroke="#000000" points="1120.9157,-122 959.0843,-122 959.0843,-86 1120.9157,-86 1120.9157,-122"/>
<text text-anchor="middle" x="1040" y="-99.8" font-family="Times,serif" font-size="14.00" fill="#000000">Stage5_RecapComponent</text>
</g>
<!-- Stage5_RecapComponent&#45;&gt;StageComponentsModule -->
<g id="edge9" class="edge">
<title>Stage5_RecapComponent&#45;&gt;StageComponentsModule</title>
<path fill="none" stroke="#000000" d="M1115.5826,-122.0511C1115.5826,-136.373 1115.5826,-154 1115.5826,-154 1115.5826,-154 1188.2488,-154 1188.2488,-154"/>
<polygon fill="#000000" stroke="#000000" points="1188.2488,-157.5001 1198.2488,-154 1188.2488,-150.5001 1188.2488,-157.5001"/>
</g>
<!-- Stage5_DefineStagesComponent -->
<g id="node10" class="node">
<title>Stage5_DefineStagesComponent</title>
<polygon fill="#ffffb3" stroke="#000000" points="941.5688,-122 740.4312,-122 740.4312,-86 941.5688,-86 941.5688,-122"/>
<text text-anchor="middle" x="841" y="-99.8" font-family="Times,serif" font-size="14.00" fill="#000000">Stage5_DefineStagesComponent</text>
</g>
<!-- Stage5_DefineStagesComponent&#45;&gt;StageComponentsModule -->
<g id="edge10" class="edge">
<title>Stage5_DefineStagesComponent&#45;&gt;StageComponentsModule</title>
<path fill="none" stroke="#000000" d="M934.4094,-122.2396C934.4094,-137.5706 934.4094,-157 934.4094,-157 934.4094,-157 1188.2088,-157 1188.2088,-157"/>
<polygon fill="#000000" stroke="#000000" points="1188.2088,-160.5001 1198.2088,-157 1188.2088,-153.5001 1188.2088,-160.5001"/>
</g>
<!-- Stage6Component -->
<g id="node11" class="node">
<title>Stage6Component</title>
<polygon fill="#ffffb3" stroke="#000000" points="722.9356,-122 603.0644,-122 603.0644,-86 722.9356,-86 722.9356,-122"/>
<text text-anchor="middle" x="663" y="-99.8" font-family="Times,serif" font-size="14.00" fill="#000000">Stage6Component</text>
</g>
<!-- Stage6Component&#45;&gt;StageComponentsModule -->
<g id="edge11" class="edge">
<title>Stage6Component&#45;&gt;StageComponentsModule</title>
<path fill="none" stroke="#000000" d="M713.5915,-122.027C713.5915,-138.3976 713.5915,-160 713.5915,-160 713.5915,-160 1187.9907,-160 1187.9907,-160"/>
<polygon fill="#000000" stroke="#000000" points="1187.9908,-163.5001 1197.9907,-160 1187.9907,-156.5001 1187.9908,-163.5001"/>
</g>
<!-- StageIntroComponent -->
<g id="node12" class="node">
<title>StageIntroComponent</title>
<polygon fill="#ffffb3" stroke="#000000" points="584.647,-122 445.353,-122 445.353,-86 584.647,-86 584.647,-122"/>
<text text-anchor="middle" x="515" y="-99.8" font-family="Times,serif" font-size="14.00" fill="#000000">StageIntroComponent</text>
</g>
<!-- StageIntroComponent&#45;&gt;StageComponentsModule -->
<g id="edge12" class="edge">
<title>StageIntroComponent&#45;&gt;StageComponentsModule</title>
<path fill="none" stroke="#000000" d="M572.553,-122.0225C572.553,-139.3734 572.553,-163 572.553,-163 572.553,-163 1187.9615,-163 1187.9615,-163"/>
<polygon fill="#000000" stroke="#000000" points="1187.9616,-166.5001 1197.9615,-163 1187.9615,-159.5001 1187.9616,-166.5001"/>
</g>
<!-- StageCompleteComponent -->
<g id="node13" class="node">
<title>StageCompleteComponent</title>
<polygon fill="#ffffb3" stroke="#000000" points="427.3724,-122 260.6276,-122 260.6276,-86 427.3724,-86 427.3724,-122"/>
<text text-anchor="middle" x="344" y="-99.8" font-family="Times,serif" font-size="14.00" fill="#000000">StageCompleteComponent</text>
</g>
<!-- StageCompleteComponent&#45;&gt;StageComponentsModule -->
<g id="edge13" class="edge">
<title>StageCompleteComponent&#45;&gt;StageComponentsModule</title>
<path fill="none" stroke="#000000" d="M423.9315,-122.302C423.9315,-140.2699 423.9315,-165 423.9315,-165 423.9315,-165 1188.1722,-165 1188.1722,-165"/>
<polygon fill="#000000" stroke="#000000" points="1188.1722,-168.5001 1198.1722,-165 1188.1721,-161.5001 1188.1722,-168.5001"/>
</g>
<!-- StageBreadcrumbsComponent -->
<g id="node14" class="node">
<title>StageBreadcrumbsComponent</title>
<polygon fill="#ffffb3" stroke="#000000" points="242.5716,-122 55.4284,-122 55.4284,-86 242.5716,-86 242.5716,-122"/>
<text text-anchor="middle" x="149" y="-99.8" font-family="Times,serif" font-size="14.00" fill="#000000">StageBreadcrumbsComponent</text>
</g>
<!-- StageBreadcrumbsComponent&#45;&gt;StageComponentsModule -->
<g id="edge14" class="edge">
<title>StageBreadcrumbsComponent&#45;&gt;StageComponentsModule</title>
<path fill="none" stroke="#000000" d="M237.1748,-122.1686C237.1748,-141.0898 237.1748,-168 237.1748,-168 237.1748,-168 1188.1166,-168 1188.1166,-168"/>
<polygon fill="#000000" stroke="#000000" points="1188.1167,-171.5001 1198.1166,-168 1188.1166,-164.5001 1188.1167,-171.5001"/>
</g>
<!-- Stage1Component  -->
<g id="node16" class="node">
<title>Stage1Component </title>
<polygon fill="#fb8072" stroke="#000000" points="2601.4348,-252 2478.5652,-252 2478.5652,-216 2601.4348,-216 2601.4348,-252"/>
<text text-anchor="middle" x="2540" y="-229.8" font-family="Times,serif" font-size="14.00" fill="#000000">Stage1Component </text>
</g>
<!-- StageComponentsModule&#45;&gt;Stage1Component  -->
<g id="edge15" class="edge">
<title>StageComponentsModule&#45;&gt;Stage1Component </title>
<path fill="none" stroke="#000000" stroke-dasharray="5,2" d="M1360.1258,-171C1637.3685,-171 2530.125,-171 2530.125,-171 2530.125,-171 2530.125,-205.7778 2530.125,-205.7778"/>
<polygon fill="#000000" stroke="#000000" points="2526.6251,-205.7778 2530.125,-215.7778 2533.6251,-205.7778 2526.6251,-205.7778"/>
</g>
<!-- Stage2Component  -->
<g id="node17" class="node">
<title>Stage2Component </title>
<polygon fill="#fb8072" stroke="#000000" points="2460.4348,-252 2337.5652,-252 2337.5652,-216 2460.4348,-216 2460.4348,-252"/>
<text text-anchor="middle" x="2399" y="-229.8" font-family="Times,serif" font-size="14.00" fill="#000000">Stage2Component </text>
</g>
<!-- StageComponentsModule&#45;&gt;Stage2Component  -->
<g id="edge16" class="edge">
<title>StageComponentsModule&#45;&gt;Stage2Component </title>
<path fill="none" stroke="#000000" stroke-dasharray="5,2" d="M1359.8771,-173C1615.7962,-173 2391.125,-173 2391.125,-173 2391.125,-173 2391.125,-205.698 2391.125,-205.698"/>
<polygon fill="#000000" stroke="#000000" points="2387.6251,-205.698 2391.125,-215.698 2394.6251,-205.698 2387.6251,-205.698"/>
</g>
<!-- Stage3Component  -->
<g id="node18" class="node">
<title>Stage3Component </title>
<polygon fill="#fb8072" stroke="#000000" points="2319.4348,-252 2196.5652,-252 2196.5652,-216 2319.4348,-216 2319.4348,-252"/>
<text text-anchor="middle" x="2258" y="-229.8" font-family="Times,serif" font-size="14.00" fill="#000000">Stage3Component </text>
</g>
<!-- StageComponentsModule&#45;&gt;Stage3Component  -->
<g id="edge17" class="edge">
<title>StageComponentsModule&#45;&gt;Stage3Component </title>
<path fill="none" stroke="#000000" stroke-dasharray="5,2" d="M1359.8781,-175C1593.3933,-175 2252.125,-175 2252.125,-175 2252.125,-175 2252.125,-205.9775 2252.125,-205.9775"/>
<polygon fill="#000000" stroke="#000000" points="2248.6251,-205.9774 2252.125,-215.9775 2255.6251,-205.9775 2248.6251,-205.9774"/>
</g>
<!-- Stage4Component  -->
<g id="node19" class="node">
<title>Stage4Component </title>
<polygon fill="#fb8072" stroke="#000000" points="2178.4348,-252 2055.5652,-252 2055.5652,-216 2178.4348,-216 2178.4348,-252"/>
<text text-anchor="middle" x="2117" y="-229.8" font-family="Times,serif" font-size="14.00" fill="#000000">Stage4Component </text>
</g>
<!-- StageComponentsModule&#45;&gt;Stage4Component  -->
<g id="edge18" class="edge">
<title>StageComponentsModule&#45;&gt;Stage4Component </title>
<path fill="none" stroke="#000000" stroke-dasharray="5,2" d="M1359.7428,-178C1565.6035,-178 2093.9275,-178 2093.9275,-178 2093.9275,-178 2093.9275,-205.973 2093.9275,-205.973"/>
<polygon fill="#000000" stroke="#000000" points="2090.4276,-205.973 2093.9275,-215.973 2097.4276,-205.973 2090.4276,-205.973"/>
</g>
<!-- Stage4_DefineLevelCategoriesComponent  -->
<g id="node20" class="node">
<title>Stage4_DefineLevelCategoriesComponent </title>
<polygon fill="#fb8072" stroke="#000000" points="2037.7611,-252 1778.2389,-252 1778.2389,-216 2037.7611,-216 2037.7611,-252"/>
<text text-anchor="middle" x="1908" y="-229.8" font-family="Times,serif" font-size="14.00" fill="#000000">Stage4_DefineLevelCategoriesComponent </text>
</g>
<!-- StageComponentsModule&#45;&gt;Stage4_DefineLevelCategoriesComponent  -->
<g id="edge19" class="edge">
<title>StageComponentsModule&#45;&gt;Stage4_DefineLevelCategoriesComponent </title>
<path fill="none" stroke="#000000" stroke-dasharray="5,2" d="M1359.913,-180C1520.284,-180 1863.1232,-180 1863.1232,-180 1863.1232,-180 1863.1232,-205.7181 1863.1232,-205.7181"/>
<polygon fill="#000000" stroke="#000000" points="1859.6233,-205.718 1863.1232,-215.7181 1866.6233,-205.7181 1859.6233,-205.718"/>
</g>
<!-- Stage4_ReviewLevelsComponent  -->
<g id="node21" class="node">
<title>Stage4_ReviewLevelsComponent </title>
<polygon fill="#fb8072" stroke="#000000" points="1760.0148,-252 1549.9852,-252 1549.9852,-216 1760.0148,-216 1760.0148,-252"/>
<text text-anchor="middle" x="1655" y="-229.8" font-family="Times,serif" font-size="14.00" fill="#000000">Stage4_ReviewLevelsComponent </text>
</g>
<!-- StageComponentsModule&#45;&gt;Stage4_ReviewLevelsComponent  -->
<g id="edge20" class="edge">
<title>StageComponentsModule&#45;&gt;Stage4_ReviewLevelsComponent </title>
<path fill="none" stroke="#000000" stroke-dasharray="5,2" d="M1359.7923,-183C1479.6085,-183 1690.4191,-183 1690.4191,-183 1690.4191,-183 1690.4191,-205.8757 1690.4191,-205.8757"/>
<polygon fill="#000000" stroke="#000000" points="1686.9192,-205.8757 1690.4191,-215.8757 1693.9192,-205.8757 1686.9192,-205.8757"/>
</g>
<!-- Stage5Component  -->
<g id="node22" class="node">
<title>Stage5Component </title>
<polygon fill="#fb8072" stroke="#000000" points="1532.4348,-252 1409.5652,-252 1409.5652,-216 1532.4348,-216 1532.4348,-252"/>
<text text-anchor="middle" x="1471" y="-229.8" font-family="Times,serif" font-size="14.00" fill="#000000">Stage5Component </text>
</g>
<!-- StageComponentsModule&#45;&gt;Stage5Component  -->
<g id="edge21" class="edge">
<title>StageComponentsModule&#45;&gt;Stage5Component </title>
<path fill="none" stroke="#000000" stroke-dasharray="5,2" d="M1359.7521,-185C1420.5297,-185 1493.4058,-185 1493.4058,-185 1493.4058,-185 1493.4058,-205.7542 1493.4058,-205.7542"/>
<polygon fill="#000000" stroke="#000000" points="1489.9059,-205.7542 1493.4058,-215.7542 1496.9059,-205.7542 1489.9059,-205.7542"/>
</g>
<!-- Stage5_FrameBuilderOverviewComponent  -->
<g id="node23" class="node">
<title>Stage5_FrameBuilderOverviewComponent </title>
<polygon fill="#fb8072" stroke="#000000" points="1391.3844,-252 1128.6156,-252 1128.6156,-216 1391.3844,-216 1391.3844,-252"/>
<text text-anchor="middle" x="1260" y="-229.8" font-family="Times,serif" font-size="14.00" fill="#000000">Stage5_FrameBuilderOverviewComponent </text>
</g>
<!-- StageComponentsModule&#45;&gt;Stage5_FrameBuilderOverviewComponent  -->
<g id="edge22" class="edge">
<title>StageComponentsModule&#45;&gt;Stage5_FrameBuilderOverviewComponent </title>
<path fill="none" stroke="#000000" stroke-dasharray="5,2" d="M1279,-187.1061C1279,-187.1061 1279,-205.991 1279,-205.991"/>
<polygon fill="#000000" stroke="#000000" points="1275.5001,-205.9909 1279,-215.991 1282.5001,-205.991 1275.5001,-205.9909"/>
</g>
<!-- Stage5_RecapComponent  -->
<g id="node24" class="node">
<title>Stage5_RecapComponent </title>
<polygon fill="#fb8072" stroke="#000000" points="1110.4152,-252 945.5848,-252 945.5848,-216 1110.4152,-216 1110.4152,-252"/>
<text text-anchor="middle" x="1028" y="-229.8" font-family="Times,serif" font-size="14.00" fill="#000000">Stage5_RecapComponent </text>
</g>
<!-- StageComponentsModule&#45;&gt;Stage5_RecapComponent  -->
<g id="edge23" class="edge">
<title>StageComponentsModule&#45;&gt;Stage5_RecapComponent </title>
<path fill="none" stroke="#000000" stroke-dasharray="5,2" d="M1198.049,-185C1126.9865,-185 1034.875,-185 1034.875,-185 1034.875,-185 1034.875,-205.7542 1034.875,-205.7542"/>
<polygon fill="#000000" stroke="#000000" points="1031.3751,-205.7542 1034.875,-215.7542 1038.3751,-205.7542 1031.3751,-205.7542"/>
</g>
<!-- Stage5_DefineStagesComponent  -->
<g id="node25" class="node">
<title>Stage5_DefineStagesComponent </title>
<polygon fill="#fb8072" stroke="#000000" points="927.0693,-252 722.9307,-252 722.9307,-216 927.0693,-216 927.0693,-252"/>
<text text-anchor="middle" x="825" y="-229.8" font-family="Times,serif" font-size="14.00" fill="#000000">Stage5_DefineStagesComponent </text>
</g>
<!-- StageComponentsModule&#45;&gt;Stage5_DefineStagesComponent  -->
<g id="edge24" class="edge">
<title>StageComponentsModule&#45;&gt;Stage5_DefineStagesComponent </title>
<path fill="none" stroke="#000000" stroke-dasharray="5,2" d="M1198.1332,-182C1069.8018,-182 833.875,-182 833.875,-182 833.875,-182 833.875,-205.8129 833.875,-205.8129"/>
<polygon fill="#000000" stroke="#000000" points="830.3751,-205.8129 833.875,-215.8129 837.3751,-205.813 830.3751,-205.8129"/>
</g>
<!-- Stage6Component  -->
<g id="node26" class="node">
<title>Stage6Component </title>
<polygon fill="#fb8072" stroke="#000000" points="704.4348,-252 581.5652,-252 581.5652,-216 704.4348,-216 704.4348,-252"/>
<text text-anchor="middle" x="643" y="-229.8" font-family="Times,serif" font-size="14.00" fill="#000000">Stage6Component </text>
</g>
<!-- StageComponentsModule&#45;&gt;Stage6Component  -->
<g id="edge25" class="edge">
<title>StageComponentsModule&#45;&gt;Stage6Component </title>
<path fill="none" stroke="#000000" stroke-dasharray="5,2" d="M1198.2364,-179C1029.2461,-179 653.875,-179 653.875,-179 653.875,-179 653.875,-205.9909 653.875,-205.9909"/>
<polygon fill="#000000" stroke="#000000" points="650.3751,-205.9909 653.875,-215.9909 657.3751,-205.991 650.3751,-205.9909"/>
</g>
<!-- StageIntroComponent  -->
<g id="node27" class="node">
<title>StageIntroComponent </title>
<polygon fill="#fb8072" stroke="#000000" points="563.6467,-252 420.3533,-252 420.3533,-216 563.6467,-216 563.6467,-252"/>
<text text-anchor="middle" x="492" y="-229.8" font-family="Times,serif" font-size="14.00" fill="#000000">StageIntroComponent </text>
</g>
<!-- StageComponentsModule&#45;&gt;StageIntroComponent  -->
<g id="edge26" class="edge">
<title>StageComponentsModule&#45;&gt;StageIntroComponent </title>
<path fill="none" stroke="#000000" stroke-dasharray="5,2" d="M1197.93,-176C999.2881,-176 504.375,-176 504.375,-176 504.375,-176 504.375,-205.9664 504.375,-205.9664"/>
<polygon fill="#000000" stroke="#000000" points="500.8751,-205.9663 504.375,-215.9664 507.8751,-205.9664 500.8751,-205.9663"/>
</g>
<!-- StageCompleteComponent  -->
<g id="node28" class="node">
<title>StageCompleteComponent </title>
<polygon fill="#fb8072" stroke="#000000" points="402.3728,-252 231.6272,-252 231.6272,-216 402.3728,-216 402.3728,-252"/>
<text text-anchor="middle" x="317" y="-229.8" font-family="Times,serif" font-size="14.00" fill="#000000">StageCompleteComponent </text>
</g>
<!-- StageComponentsModule&#45;&gt;StageCompleteComponent  -->
<g id="edge27" class="edge">
<title>StageComponentsModule&#45;&gt;StageCompleteComponent </title>
<path fill="none" stroke="#000000" stroke-dasharray="5,2" d="M1198.206,-174C969.0438,-174 331.375,-174 331.375,-174 331.375,-174 331.375,-205.998 331.375,-205.998"/>
<polygon fill="#000000" stroke="#000000" points="327.8751,-205.998 331.375,-215.998 334.8751,-205.9981 327.8751,-205.998"/>
</g>
<!-- StageBreadcrumbsComponent  -->
<g id="node29" class="node">
<title>StageBreadcrumbsComponent </title>
<polygon fill="#fb8072" stroke="#000000" points="214.0721,-252 23.9279,-252 23.9279,-216 214.0721,-216 214.0721,-252"/>
<text text-anchor="middle" x="119" y="-229.8" font-family="Times,serif" font-size="14.00" fill="#000000">StageBreadcrumbsComponent </text>
</g>
<!-- StageComponentsModule&#45;&gt;StageBreadcrumbsComponent  -->
<g id="edge28" class="edge">
<title>StageComponentsModule&#45;&gt;StageBreadcrumbsComponent </title>
<path fill="none" stroke="#000000" stroke-dasharray="5,2" d="M1198.0915,-171C937.1843,-171 134.875,-171 134.875,-171 134.875,-171 134.875,-205.7778 134.875,-205.7778"/>
<polygon fill="#000000" stroke="#000000" points="131.3751,-205.7778 134.875,-215.7778 138.3751,-205.7778 131.3751,-205.7778"/>
</g>
</g>
</svg>
