<?xml version="1.0" encoding="UTF-8" standalone="no"?>
<!DOCTYPE svg PUBLIC "-//W3C//DTD SVG 1.1//EN"
 "http://www.w3.org/Graphics/SVG/1.1/DTD/svg11.dtd">
<!-- Generated by graphviz version 2.40.1 (20161225.0304)
 -->
<!-- Title: dependencies Pages: 1 -->
<svg width="2105pt" height="284pt"
 viewBox="0.00 0.00 2105.00 284.00" xmlns="http://www.w3.org/2000/svg" xmlns:xlink="http://www.w3.org/1999/xlink">
<g id="graph0" class="graph" transform="scale(1 1) rotate(0) translate(4 280)">
<title>dependencies</title>
<polygon fill="#ffffff" stroke="transparent" points="-4,4 -4,-280 2101,-280 2101,4 -4,4"/>
<text text-anchor="start" x="1027.5091" y="-42.4" font-family="sans-serif" font-weight="bold" font-size="14.00" fill="#000000">Legend</text>
<polygon fill="#ffffb3" stroke="transparent" points="814.5,-10 814.5,-30 834.5,-30 834.5,-10 814.5,-10"/>
<text text-anchor="start" x="838.129" y="-15.4" font-family="sans-serif" font-size="14.00" fill="#000000"> &#160;Declarations</text>
<polygon fill="#8dd3c7" stroke="transparent" points="927.5,-10 927.5,-30 947.5,-30 947.5,-10 927.5,-10"/>
<text text-anchor="start" x="951.2251" y="-15.4" font-family="sans-serif" font-size="14.00" fill="#000000"> &#160;Module</text>
<polygon fill="#80b1d3" stroke="transparent" points="1013.5,-10 1013.5,-30 1033.5,-30 1033.5,-10 1013.5,-10"/>
<text text-anchor="start" x="1037.2812" y="-15.4" font-family="sans-serif" font-size="14.00" fill="#000000"> &#160;Bootstrap</text>
<polygon fill="#fdb462" stroke="transparent" points="1110.5,-10 1110.5,-30 1130.5,-30 1130.5,-10 1110.5,-10"/>
<text text-anchor="start" x="1134.1732" y="-15.4" font-family="sans-serif" font-size="14.00" fill="#000000"> &#160;Providers</text>
<polygon fill="#fb8072" stroke="transparent" points="1206.5,-10 1206.5,-30 1226.5,-30 1226.5,-10 1206.5,-10"/>
<text text-anchor="start" x="1230.2258" y="-15.4" font-family="sans-serif" font-size="14.00" fill="#000000"> &#160;Exports</text>
<g id="clust1" class="cluster">
<title>cluster_SurveyComponentsModule</title>
<polygon fill="none" stroke="#000000" stroke-dasharray="1,5" points="8,-70 8,-268 2089,-268 2089,-70 8,-70"/>
</g>
<g id="clust2" class="cluster">
<title>cluster_SurveyComponentsModule_declarations</title>
<polygon fill="none" stroke="#000000" points="33,-78 33,-130 2065,-130 2065,-78 33,-78"/>
</g>
<g id="clust13" class="cluster">
<title>cluster_SurveyComponentsModule_exports</title>
<polygon fill="none" stroke="#000000" points="16,-208 16,-260 2081,-260 2081,-208 16,-208"/>
</g>
<!-- SurveyQuestionComponent -->
<g id="node1" class="node">
<title>SurveyQuestionComponent</title>
<polygon fill="#ffffb3" stroke="#000000" points="2056.5378,-122 1885.4622,-122 1885.4622,-86 2056.5378,-86 2056.5378,-122"/>
<text text-anchor="middle" x="1971" y="-99.8" font-family="Times,serif" font-size="14.00" fill="#000000">SurveyQuestionComponent</text>
</g>
<!-- SurveyComponentsModule -->
<g id="node10" class="node">
<title>SurveyComponentsModule</title>
<polygon fill="#8dd3c7" stroke="#000000" points="1240.9846,-187 1237.9846,-191 1216.9846,-191 1213.9846,-187 1071.0154,-187 1071.0154,-151 1240.9846,-151 1240.9846,-187"/>
<text text-anchor="middle" x="1156" y="-164.8" font-family="Times,serif" font-size="14.00" fill="#000000">SurveyComponentsModule</text>
</g>
<!-- SurveyQuestionComponent&#45;&gt;SurveyComponentsModule -->
<g id="edge1" class="edge">
<title>SurveyQuestionComponent&#45;&gt;SurveyComponentsModule</title>
<path fill="none" stroke="#000000" d="M1891.3564,-122.302C1891.3564,-140.2699 1891.3564,-165 1891.3564,-165 1891.3564,-165 1251.0731,-165 1251.0731,-165"/>
<polygon fill="#000000" stroke="#000000" points="1251.0731,-161.5001 1241.0731,-165 1251.0731,-168.5001 1251.0731,-161.5001"/>
</g>
<!-- SurveyQuestionGroupComponent -->
<g id="node2" class="node">
<title>SurveyQuestionGroupComponent</title>
<polygon fill="#ffffb3" stroke="#000000" points="1867.8046,-122 1660.1954,-122 1660.1954,-86 1867.8046,-86 1867.8046,-122"/>
<text text-anchor="middle" x="1764" y="-99.8" font-family="Times,serif" font-size="14.00" fill="#000000">SurveyQuestionGroupComponent</text>
</g>
<!-- SurveyQuestionGroupComponent&#45;&gt;SurveyComponentsModule -->
<g id="edge2" class="edge">
<title>SurveyQuestionGroupComponent&#45;&gt;SurveyComponentsModule</title>
<path fill="none" stroke="#000000" d="M1664.4728,-122.027C1664.4728,-138.3976 1664.4728,-160 1664.4728,-160 1664.4728,-160 1251.1069,-160 1251.1069,-160"/>
<polygon fill="#000000" stroke="#000000" points="1251.1069,-156.5001 1241.1069,-160 1251.1069,-163.5001 1251.1069,-156.5001"/>
</g>
<!-- SurveyReferenceComponent -->
<g id="node3" class="node">
<title>SurveyReferenceComponent</title>
<polygon fill="#ffffb3" stroke="#000000" points="1641.7212,-122 1464.2788,-122 1464.2788,-86 1641.7212,-86 1641.7212,-122"/>
<text text-anchor="middle" x="1553" y="-99.8" font-family="Times,serif" font-size="14.00" fill="#000000">SurveyReferenceComponent</text>
</g>
<!-- SurveyReferenceComponent&#45;&gt;SurveyComponentsModule -->
<g id="edge3" class="edge">
<title>SurveyReferenceComponent&#45;&gt;SurveyComponentsModule</title>
<path fill="none" stroke="#000000" d="M1584.3702,-122.1871C1584.3702,-137.1824 1584.3702,-156 1584.3702,-156 1584.3702,-156 1251.1443,-156 1251.1443,-156"/>
<polygon fill="#000000" stroke="#000000" points="1251.1444,-152.5001 1241.1443,-156 1251.1443,-159.5001 1251.1444,-152.5001"/>
</g>
<!-- SurveyRepeatGroupComponent -->
<g id="node4" class="node">
<title>SurveyRepeatGroupComponent</title>
<polygon fill="#ffffb3" stroke="#000000" points="1445.6288,-122 1250.3712,-122 1250.3712,-86 1445.6288,-86 1445.6288,-122"/>
<text text-anchor="middle" x="1348" y="-99.8" font-family="Times,serif" font-size="14.00" fill="#000000">SurveyRepeatGroupComponent</text>
</g>
<!-- SurveyRepeatGroupComponent&#45;&gt;SurveyComponentsModule -->
<g id="edge4" class="edge">
<title>SurveyRepeatGroupComponent&#45;&gt;SurveyComponentsModule</title>
<path fill="none" stroke="#000000" d="M1250.3579,-104C1242.0371,-104 1236.7118,-104 1236.7118,-104 1236.7118,-104 1236.7118,-140.8939 1236.7118,-140.8939"/>
<polygon fill="#000000" stroke="#000000" points="1233.2119,-140.8938 1236.7118,-150.8939 1240.2119,-140.8939 1233.2119,-140.8938"/>
</g>
<!-- SurveyLabelComponent -->
<g id="node5" class="node">
<title>SurveyLabelComponent</title>
<polygon fill="#ffffb3" stroke="#000000" points="1232.3627,-122 1079.6373,-122 1079.6373,-86 1232.3627,-86 1232.3627,-122"/>
<text text-anchor="middle" x="1156" y="-99.8" font-family="Times,serif" font-size="14.00" fill="#000000">SurveyLabelComponent</text>
</g>
<!-- SurveyLabelComponent&#45;&gt;SurveyComponentsModule -->
<g id="edge5" class="edge">
<title>SurveyLabelComponent&#45;&gt;SurveyComponentsModule</title>
<path fill="none" stroke="#000000" d="M1156,-122.1061C1156,-122.1061 1156,-140.991 1156,-140.991"/>
<polygon fill="#000000" stroke="#000000" points="1152.5001,-140.9909 1156,-150.991 1159.5001,-140.991 1152.5001,-140.9909"/>
</g>
<!-- QuestionCustomStrataSelectComponent -->
<g id="node6" class="node">
<title>QuestionCustomStrataSelectComponent</title>
<polygon fill="#ffffb3" stroke="#000000" points="1061.3032,-122 818.6968,-122 818.6968,-86 1061.3032,-86 1061.3032,-122"/>
<text text-anchor="middle" x="940" y="-99.8" font-family="Times,serif" font-size="14.00" fill="#000000">QuestionCustomStrataSelectComponent</text>
</g>
<!-- QuestionCustomStrataSelectComponent&#45;&gt;SurveyComponentsModule -->
<g id="edge6" class="edge">
<title>QuestionCustomStrataSelectComponent&#45;&gt;SurveyComponentsModule</title>
<path fill="none" stroke="#000000" d="M1061.3195,-104C1069.9189,-104 1075.2882,-104 1075.2882,-104 1075.2882,-104 1075.2882,-140.8939 1075.2882,-140.8939"/>
<polygon fill="#000000" stroke="#000000" points="1071.7883,-140.8938 1075.2882,-150.8939 1078.7883,-140.8939 1071.7883,-140.8938"/>
</g>
<!-- QuestionCustomStagesDefineComponent -->
<g id="node7" class="node">
<title>QuestionCustomStagesDefineComponent</title>
<polygon fill="#ffffb3" stroke="#000000" points="801.0758,-122 550.9242,-122 550.9242,-86 801.0758,-86 801.0758,-122"/>
<text text-anchor="middle" x="676" y="-99.8" font-family="Times,serif" font-size="14.00" fill="#000000">QuestionCustomStagesDefineComponent</text>
</g>
<!-- QuestionCustomStagesDefineComponent&#45;&gt;SurveyComponentsModule -->
<g id="edge7" class="edge">
<title>QuestionCustomStagesDefineComponent&#45;&gt;SurveyComponentsModule</title>
<path fill="none" stroke="#000000" d="M714.1793,-122.1871C714.1793,-137.1824 714.1793,-156 714.1793,-156 714.1793,-156 1060.8125,-156 1060.8125,-156"/>
<polygon fill="#000000" stroke="#000000" points="1060.8126,-159.5001 1070.8125,-156 1060.8125,-152.5001 1060.8126,-159.5001"/>
</g>
<!-- QuestionCustomReportingLevelsComponent -->
<g id="node8" class="node">
<title>QuestionCustomReportingLevelsComponent</title>
<polygon fill="#ffffb3" stroke="#000000" points="533.2519,-122 264.7481,-122 264.7481,-86 533.2519,-86 533.2519,-122"/>
<text text-anchor="middle" x="399" y="-99.8" font-family="Times,serif" font-size="14.00" fill="#000000">QuestionCustomReportingLevelsComponent</text>
</g>
<!-- QuestionCustomReportingLevelsComponent&#45;&gt;SurveyComponentsModule -->
<g id="edge8" class="edge">
<title>QuestionCustomReportingLevelsComponent&#45;&gt;SurveyComponentsModule</title>
<path fill="none" stroke="#000000" d="M528.7509,-122.027C528.7509,-138.3976 528.7509,-160 528.7509,-160 528.7509,-160 1060.7536,-160 1060.7536,-160"/>
<polygon fill="#000000" stroke="#000000" points="1060.7536,-163.5001 1070.7536,-160 1060.7536,-156.5001 1060.7536,-163.5001"/>
</g>
<!-- QuestionTextMultipleComponent -->
<g id="node9" class="node">
<title>QuestionTextMultipleComponent</title>
<polygon fill="#ffffb3" stroke="#000000" points="246.7589,-122 41.2411,-122 41.2411,-86 246.7589,-86 246.7589,-122"/>
<text text-anchor="middle" x="144" y="-99.8" font-family="Times,serif" font-size="14.00" fill="#000000">QuestionTextMultipleComponent</text>
</g>
<!-- QuestionTextMultipleComponent&#45;&gt;SurveyComponentsModule -->
<g id="edge9" class="edge">
<title>QuestionTextMultipleComponent&#45;&gt;SurveyComponentsModule</title>
<path fill="none" stroke="#000000" d="M240.2544,-122.302C240.2544,-140.2699 240.2544,-165 240.2544,-165 240.2544,-165 1060.6712,-165 1060.6712,-165"/>
<polygon fill="#000000" stroke="#000000" points="1060.6712,-168.5001 1070.6712,-165 1060.6712,-161.5001 1060.6712,-168.5001"/>
</g>
<!-- SurveyQuestionComponent  -->
<g id="node11" class="node">
<title>SurveyQuestionComponent </title>
<polygon fill="#fb8072" stroke="#000000" points="2072.5372,-252 1897.4628,-252 1897.4628,-216 2072.5372,-216 2072.5372,-252"/>
<text text-anchor="middle" x="1985" y="-229.8" font-family="Times,serif" font-size="14.00" fill="#000000">SurveyQuestionComponent </text>
</g>
<!-- SurveyComponentsModule&#45;&gt;SurveyQuestionComponent  -->
<g id="edge10" class="edge">
<title>SurveyComponentsModule&#45;&gt;SurveyQuestionComponent </title>
<path fill="none" stroke="#000000" stroke-dasharray="5,2" d="M1241.1662,-169C1451.22,-169 1977.125,-169 1977.125,-169 1977.125,-169 1977.125,-205.8939 1977.125,-205.8939"/>
<polygon fill="#000000" stroke="#000000" points="1973.6251,-205.8938 1977.125,-215.8939 1980.6251,-205.8939 1973.6251,-205.8938"/>
</g>
<!-- SurveyQuestionGroupComponent  -->
<g id="node12" class="node">
<title>SurveyQuestionGroupComponent </title>
<polygon fill="#fb8072" stroke="#000000" points="1879.3045,-252 1668.6955,-252 1668.6955,-216 1879.3045,-216 1879.3045,-252"/>
<text text-anchor="middle" x="1774" y="-229.8" font-family="Times,serif" font-size="14.00" fill="#000000">SurveyQuestionGroupComponent </text>
</g>
<!-- SurveyComponentsModule&#45;&gt;SurveyQuestionGroupComponent  -->
<g id="edge11" class="edge">
<title>SurveyComponentsModule&#45;&gt;SurveyQuestionGroupComponent </title>
<path fill="none" stroke="#000000" stroke-dasharray="5,2" d="M1241.1134,-174C1409.3086,-174 1768.125,-174 1768.125,-174 1768.125,-174 1768.125,-205.998 1768.125,-205.998"/>
<polygon fill="#000000" stroke="#000000" points="1764.6251,-205.998 1768.125,-215.998 1771.6251,-205.9981 1764.6251,-205.998"/>
</g>
<!-- SurveyReferenceComponent  -->
<g id="node13" class="node">
<title>SurveyReferenceComponent </title>
<polygon fill="#fb8072" stroke="#000000" points="1650.7211,-252 1469.2789,-252 1469.2789,-216 1650.7211,-216 1650.7211,-252"/>
<text text-anchor="middle" x="1560" y="-229.8" font-family="Times,serif" font-size="14.00" fill="#000000">SurveyReferenceComponent </text>
</g>
<!-- SurveyComponentsModule&#45;&gt;SurveyReferenceComponent  -->
<g id="edge12" class="edge">
<title>SurveyComponentsModule&#45;&gt;SurveyReferenceComponent </title>
<path fill="none" stroke="#000000" stroke-dasharray="5,2" d="M1241.0873,-178C1350.5837,-178 1526.8798,-178 1526.8798,-178 1526.8798,-178 1526.8798,-205.973 1526.8798,-205.973"/>
<polygon fill="#000000" stroke="#000000" points="1523.3799,-205.973 1526.8798,-215.973 1530.3799,-205.973 1523.3799,-205.973"/>
</g>
<!-- SurveyRepeatGroupComponent  -->
<g id="node14" class="node">
<title>SurveyRepeatGroupComponent </title>
<polygon fill="#fb8072" stroke="#000000" points="1451.6284,-252 1252.3716,-252 1252.3716,-216 1451.6284,-216 1451.6284,-252"/>
<text text-anchor="middle" x="1352" y="-229.8" font-family="Times,serif" font-size="14.00" fill="#000000">SurveyRepeatGroupComponent </text>
</g>
<!-- SurveyComponentsModule&#45;&gt;SurveyRepeatGroupComponent  -->
<g id="edge13" class="edge">
<title>SurveyComponentsModule&#45;&gt;SurveyRepeatGroupComponent </title>
<path fill="none" stroke="#000000" stroke-dasharray="5,2" d="M1240.9885,-183C1292.8016,-183 1349.125,-183 1349.125,-183 1349.125,-183 1349.125,-205.8757 1349.125,-205.8757"/>
<polygon fill="#000000" stroke="#000000" points="1345.6251,-205.8757 1349.125,-215.8757 1352.6251,-205.8757 1345.6251,-205.8757"/>
</g>
<!-- SurveyLabelComponent  -->
<g id="node15" class="node">
<title>SurveyLabelComponent </title>
<polygon fill="#fb8072" stroke="#000000" points="1234.363,-252 1077.637,-252 1077.637,-216 1234.363,-216 1234.363,-252"/>
<text text-anchor="middle" x="1156" y="-229.8" font-family="Times,serif" font-size="14.00" fill="#000000">SurveyLabelComponent </text>
</g>
<!-- SurveyComponentsModule&#45;&gt;SurveyLabelComponent  -->
<g id="edge14" class="edge">
<title>SurveyComponentsModule&#45;&gt;SurveyLabelComponent </title>
<path fill="none" stroke="#000000" stroke-dasharray="5,2" d="M1156,-187.1061C1156,-187.1061 1156,-205.991 1156,-205.991"/>
<polygon fill="#000000" stroke="#000000" points="1152.5001,-205.9909 1156,-215.991 1159.5001,-205.991 1152.5001,-205.9909"/>
</g>
<!-- QuestionCustomStrataSelectComponent  -->
<g id="node16" class="node">
<title>QuestionCustomStrataSelectComponent </title>
<polygon fill="#fb8072" stroke="#000000" points="1059.8031,-252 814.1969,-252 814.1969,-216 1059.8031,-216 1059.8031,-252"/>
<text text-anchor="middle" x="937" y="-229.8" font-family="Times,serif" font-size="14.00" fill="#000000">QuestionCustomStrataSelectComponent </text>
</g>
<!-- SurveyComponentsModule&#45;&gt;QuestionCustomStrataSelectComponent  -->
<g id="edge15" class="edge">
<title>SurveyComponentsModule&#45;&gt;QuestionCustomStrataSelectComponent </title>
<path fill="none" stroke="#000000" stroke-dasharray="5,2" d="M1071.0058,-183C1010.3171,-183 939.375,-183 939.375,-183 939.375,-183 939.375,-205.8757 939.375,-205.8757"/>
<polygon fill="#000000" stroke="#000000" points="935.8751,-205.8757 939.375,-215.8757 942.8751,-205.8757 935.8751,-205.8757"/>
</g>
<!-- QuestionCustomStagesDefineComponent  -->
<g id="node17" class="node">
<title>QuestionCustomStagesDefineComponent </title>
<polygon fill="#fb8072" stroke="#000000" points="795.5762,-252 542.4238,-252 542.4238,-216 795.5762,-216 795.5762,-252"/>
<text text-anchor="middle" x="669" y="-229.8" font-family="Times,serif" font-size="14.00" fill="#000000">QuestionCustomStagesDefineComponent </text>
</g>
<!-- SurveyComponentsModule&#45;&gt;QuestionCustomStagesDefineComponent  -->
<g id="edge16" class="edge">
<title>SurveyComponentsModule&#45;&gt;QuestionCustomStagesDefineComponent </title>
<path fill="none" stroke="#000000" stroke-dasharray="5,2" d="M1070.7371,-178C922.4172,-178 632.5707,-178 632.5707,-178 632.5707,-178 632.5707,-205.973 632.5707,-205.973"/>
<polygon fill="#000000" stroke="#000000" points="629.0708,-205.973 632.5707,-215.973 636.0708,-205.973 629.0708,-205.973"/>
</g>
<!-- QuestionCustomReportingLevelsComponent  -->
<g id="node18" class="node">
<title>QuestionCustomReportingLevelsComponent </title>
<polygon fill="#fb8072" stroke="#000000" points="524.2519,-252 251.7481,-252 251.7481,-216 524.2519,-216 524.2519,-252"/>
<text text-anchor="middle" x="388" y="-229.8" font-family="Times,serif" font-size="14.00" fill="#000000">QuestionCustomReportingLevelsComponent </text>
</g>
<!-- SurveyComponentsModule&#45;&gt;QuestionCustomReportingLevelsComponent  -->
<g id="edge17" class="edge">
<title>SurveyComponentsModule&#45;&gt;QuestionCustomReportingLevelsComponent </title>
<path fill="none" stroke="#000000" stroke-dasharray="5,2" d="M1070.8489,-174C872.1055,-174 394.375,-174 394.375,-174 394.375,-174 394.375,-205.998 394.375,-205.998"/>
<polygon fill="#000000" stroke="#000000" points="390.8751,-205.998 394.375,-215.998 397.8751,-205.9981 390.8751,-205.998"/>
</g>
<!-- QuestionTextMultipleComponent  -->
<g id="node19" class="node">
<title>QuestionTextMultipleComponent </title>
<polygon fill="#fb8072" stroke="#000000" points="233.759,-252 24.241,-252 24.241,-216 233.759,-216 233.759,-252"/>
<text text-anchor="middle" x="129" y="-229.8" font-family="Times,serif" font-size="14.00" fill="#000000">QuestionTextMultipleComponent </text>
</g>
<!-- SurveyComponentsModule&#45;&gt;QuestionTextMultipleComponent  -->
<g id="edge18" class="edge">
<title>SurveyComponentsModule&#45;&gt;QuestionTextMultipleComponent </title>
<path fill="none" stroke="#000000" stroke-dasharray="5,2" d="M1070.9046,-169C826.0885,-169 137.375,-169 137.375,-169 137.375,-169 137.375,-205.8939 137.375,-205.8939"/>
<polygon fill="#000000" stroke="#000000" points="133.8751,-205.8938 137.375,-215.8939 140.8751,-205.8939 133.8751,-205.8938"/>
</g>
</g>
</svg>
