<?xml version="1.0" encoding="UTF-8" standalone="no"?>
<!DOCTYPE svg PUBLIC "-//W3C//DTD SVG 1.1//EN"
 "http://www.w3.org/Graphics/SVG/1.1/DTD/svg11.dtd">
<!-- Generated by graphviz version 2.40.1 (20161225.0304)
 -->
<!-- Title: dependencies Pages: 1 -->
<svg width="668pt" height="284pt"
 viewBox="0.00 0.00 668.00 284.00" xmlns="http://www.w3.org/2000/svg" xmlns:xlink="http://www.w3.org/1999/xlink">
<g id="graph0" class="graph" transform="scale(1 1) rotate(0) translate(4 280)">
<title>dependencies</title>
<polygon fill="#ffffff" stroke="transparent" points="-4,4 -4,-280 664,-280 664,4 -4,4"/>
<text text-anchor="start" x="309.0091" y="-42.4" font-family="sans-serif" font-weight="bold" font-size="14.00" fill="#000000">Legend</text>
<polygon fill="#ffffb3" stroke="transparent" points="96,-10 96,-30 116,-30 116,-10 96,-10"/>
<text text-anchor="start" x="119.629" y="-15.4" font-family="sans-serif" font-size="14.00" fill="#000000"> &#160;Declarations</text>
<polygon fill="#8dd3c7" stroke="transparent" points="209,-10 209,-30 229,-30 229,-10 209,-10"/>
<text text-anchor="start" x="232.7251" y="-15.4" font-family="sans-serif" font-size="14.00" fill="#000000"> &#160;Module</text>
<polygon fill="#80b1d3" stroke="transparent" points="295,-10 295,-30 315,-30 315,-10 295,-10"/>
<text text-anchor="start" x="318.7812" y="-15.4" font-family="sans-serif" font-size="14.00" fill="#000000"> &#160;Bootstrap</text>
<polygon fill="#fdb462" stroke="transparent" points="392,-10 392,-30 412,-30 412,-10 392,-10"/>
<text text-anchor="start" x="415.6732" y="-15.4" font-family="sans-serif" font-size="14.00" fill="#000000"> &#160;Providers</text>
<polygon fill="#fb8072" stroke="transparent" points="488,-10 488,-30 508,-30 508,-10 488,-10"/>
<text text-anchor="start" x="511.7258" y="-15.4" font-family="sans-serif" font-size="14.00" fill="#000000"> &#160;Exports</text>
<g id="clust1" class="cluster">
<title>cluster_DevComponentsModule</title>
<polygon fill="none" stroke="#000000" stroke-dasharray="1,5" points="8,-70 8,-268 652,-268 652,-70 8,-70"/>
</g>
<g id="clust2" class="cluster">
<title>cluster_DevComponentsModule_declarations</title>
<polygon fill="none" stroke="#000000" points="21,-78 21,-130 639,-130 639,-78 21,-78"/>
</g>
<g id="clust7" class="cluster">
<title>cluster_DevComponentsModule_exports</title>
<polygon fill="none" stroke="#000000" points="16,-208 16,-260 644,-260 644,-208 16,-208"/>
</g>
<!-- DevEditorToggleComponent -->
<g id="node1" class="node">
<title>DevEditorToggleComponent</title>
<polygon fill="#ffffb3" stroke="#000000" points="630.8061,-122 451.1939,-122 451.1939,-86 630.8061,-86 630.8061,-122"/>
<text text-anchor="middle" x="541" y="-99.8" font-family="Times,serif" font-size="14.00" fill="#000000">DevEditorToggleComponent</text>
</g>
<!-- DevComponentsModule -->
<g id="node4" class="node">
<title>DevComponentsModule</title>
<polygon fill="#8dd3c7" stroke="#000000" points="411.6484,-187 408.6484,-191 387.6484,-191 384.6484,-187 258.3516,-187 258.3516,-151 411.6484,-151 411.6484,-187"/>
<text text-anchor="middle" x="335" y="-164.8" font-family="Times,serif" font-size="14.00" fill="#000000">DevComponentsModule</text>
</g>
<!-- DevEditorToggleComponent&#45;&gt;DevComponentsModule -->
<g id="edge1" class="edge">
<title>DevEditorToggleComponent&#45;&gt;DevComponentsModule</title>
<path fill="none" stroke="#000000" d="M571.6343,-122.0225C571.6343,-139.3734 571.6343,-163 571.6343,-163 571.6343,-163 421.8284,-163 421.8284,-163"/>
<polygon fill="#000000" stroke="#000000" points="421.8284,-159.5001 411.8284,-163 421.8283,-166.5001 421.8284,-159.5001"/>
</g>
<!-- DevEditorResourcesComponent -->
<g id="node2" class="node">
<title>DevEditorResourcesComponent</title>
<polygon fill="#ffffb3" stroke="#000000" points="433.6783,-122 236.3217,-122 236.3217,-86 433.6783,-86 433.6783,-122"/>
<text text-anchor="middle" x="335" y="-99.8" font-family="Times,serif" font-size="14.00" fill="#000000">DevEditorResourcesComponent</text>
</g>
<!-- DevEditorResourcesComponent&#45;&gt;DevComponentsModule -->
<g id="edge2" class="edge">
<title>DevEditorResourcesComponent&#45;&gt;DevComponentsModule</title>
<path fill="none" stroke="#000000" d="M335,-122.1061C335,-122.1061 335,-140.991 335,-140.991"/>
<polygon fill="#000000" stroke="#000000" points="331.5001,-140.9909 335,-150.991 338.5001,-140.991 331.5001,-140.9909"/>
</g>
<!-- DevEditorGlossaryComponent -->
<g id="node3" class="node">
<title>DevEditorGlossaryComponent</title>
<polygon fill="#ffffb3" stroke="#000000" points="218.91,-122 29.09,-122 29.09,-86 218.91,-86 218.91,-122"/>
<text text-anchor="middle" x="124" y="-99.8" font-family="Times,serif" font-size="14.00" fill="#000000">DevEditorGlossaryComponent</text>
</g>
<!-- DevEditorGlossaryComponent&#45;&gt;DevComponentsModule -->
<g id="edge3" class="edge">
<title>DevEditorGlossaryComponent&#45;&gt;DevComponentsModule</title>
<path fill="none" stroke="#000000" d="M154.0683,-122.0225C154.0683,-139.3734 154.0683,-163 154.0683,-163 154.0683,-163 248.2687,-163 248.2687,-163"/>
<polygon fill="#000000" stroke="#000000" points="248.2687,-166.5001 258.2687,-163 248.2686,-159.5001 248.2687,-166.5001"/>
</g>
<!-- DevEditorToggleComponent  -->
<g id="node5" class="node">
<title>DevEditorToggleComponent </title>
<polygon fill="#fb8072" stroke="#000000" points="636.3059,-252 453.6941,-252 453.6941,-216 636.3059,-216 636.3059,-252"/>
<text text-anchor="middle" x="545" y="-229.8" font-family="Times,serif" font-size="14.00" fill="#000000">DevEditorToggleComponent </text>
</g>
<!-- DevComponentsModule&#45;&gt;DevEditorToggleComponent  -->
<g id="edge4" class="edge">
<title>DevComponentsModule&#45;&gt;DevEditorToggleComponent </title>
<path fill="none" stroke="#000000" stroke-dasharray="5,2" d="M411.8718,-175C459.8745,-175 512.6157,-175 512.6157,-175 512.6157,-175 512.6157,-205.9775 512.6157,-205.9775"/>
<polygon fill="#000000" stroke="#000000" points="509.1158,-205.9774 512.6157,-215.9775 516.1158,-205.9775 509.1158,-205.9774"/>
</g>
<!-- DevEditorResourcesComponent  -->
<g id="node6" class="node">
<title>DevEditorResourcesComponent </title>
<polygon fill="#fb8072" stroke="#000000" points="435.1785,-252 234.8215,-252 234.8215,-216 435.1785,-216 435.1785,-252"/>
<text text-anchor="middle" x="335" y="-229.8" font-family="Times,serif" font-size="14.00" fill="#000000">DevEditorResourcesComponent </text>
</g>
<!-- DevComponentsModule&#45;&gt;DevEditorResourcesComponent  -->
<g id="edge5" class="edge">
<title>DevComponentsModule&#45;&gt;DevEditorResourcesComponent </title>
<path fill="none" stroke="#000000" stroke-dasharray="5,2" d="M335,-187.1061C335,-187.1061 335,-205.991 335,-205.991"/>
<polygon fill="#000000" stroke="#000000" points="331.5001,-205.9909 335,-215.991 338.5001,-205.991 331.5001,-205.9909"/>
</g>
<!-- DevEditorGlossaryComponent  -->
<g id="node7" class="node">
<title>DevEditorGlossaryComponent </title>
<polygon fill="#fb8072" stroke="#000000" points="216.4096,-252 23.5904,-252 23.5904,-216 216.4096,-216 216.4096,-252"/>
<text text-anchor="middle" x="120" y="-229.8" font-family="Times,serif" font-size="14.00" fill="#000000">DevEditorGlossaryComponent </text>
</g>
<!-- DevComponentsModule&#45;&gt;DevEditorGlossaryComponent  -->
<g id="edge6" class="edge">
<title>DevComponentsModule&#45;&gt;DevEditorGlossaryComponent </title>
<path fill="none" stroke="#000000" stroke-dasharray="5,2" d="M258.3466,-175C187.0252,-175 91.6817,-175 91.6817,-175 91.6817,-175 91.6817,-205.9775 91.6817,-205.9775"/>
<polygon fill="#000000" stroke="#000000" points="88.1818,-205.9774 91.6817,-215.9775 95.1818,-205.9775 88.1818,-205.9774"/>
</g>
</g>
</svg>
