<?xml version="1.0" encoding="UTF-8" standalone="no"?>
<!DOCTYPE svg PUBLIC "-//W3C//DTD SVG 1.1//EN"
 "http://www.w3.org/Graphics/SVG/1.1/DTD/svg11.dtd">
<!-- Generated by graphviz version 2.40.1 (20161225.0304)
 -->
<!-- Title: dependencies Pages: 1 -->
<svg width="1352pt" height="284pt"
 viewBox="0.00 0.00 1352.00 284.00" xmlns="http://www.w3.org/2000/svg" xmlns:xlink="http://www.w3.org/1999/xlink">
<g id="graph0" class="graph" transform="scale(1 1) rotate(0) translate(4 280)">
<title>dependencies</title>
<polygon fill="#ffffff" stroke="transparent" points="-4,4 -4,-280 1348,-280 1348,4 -4,4"/>
<text text-anchor="start" x="651.0091" y="-42.4" font-family="sans-serif" font-weight="bold" font-size="14.00" fill="#000000">Legend</text>
<polygon fill="#ffffb3" stroke="transparent" points="438,-10 438,-30 458,-30 458,-10 438,-10"/>
<text text-anchor="start" x="461.629" y="-15.4" font-family="sans-serif" font-size="14.00" fill="#000000"> &#160;Declarations</text>
<polygon fill="#8dd3c7" stroke="transparent" points="551,-10 551,-30 571,-30 571,-10 551,-10"/>
<text text-anchor="start" x="574.7251" y="-15.4" font-family="sans-serif" font-size="14.00" fill="#000000"> &#160;Module</text>
<polygon fill="#80b1d3" stroke="transparent" points="637,-10 637,-30 657,-30 657,-10 637,-10"/>
<text text-anchor="start" x="660.7812" y="-15.4" font-family="sans-serif" font-size="14.00" fill="#000000"> &#160;Bootstrap</text>
<polygon fill="#fdb462" stroke="transparent" points="734,-10 734,-30 754,-30 754,-10 734,-10"/>
<text text-anchor="start" x="757.6732" y="-15.4" font-family="sans-serif" font-size="14.00" fill="#000000"> &#160;Providers</text>
<polygon fill="#fb8072" stroke="transparent" points="830,-10 830,-30 850,-30 850,-10 830,-10"/>
<text text-anchor="start" x="853.7258" y="-15.4" font-family="sans-serif" font-size="14.00" fill="#000000"> &#160;Exports</text>
<g id="clust1" class="cluster">
<title>cluster_GeneralComponentsModule</title>
<polygon fill="none" stroke="#000000" stroke-dasharray="1,5" points="8,-70 8,-268 1336,-268 1336,-70 8,-70"/>
</g>
<g id="clust2" class="cluster">
<title>cluster_GeneralComponentsModule_declarations</title>
<polygon fill="none" stroke="#000000" points="34,-78 34,-130 1316,-130 1316,-78 34,-78"/>
</g>
<g id="clust12" class="cluster">
<title>cluster_GeneralComponentsModule_exports</title>
<polygon fill="none" stroke="#000000" points="16,-208 16,-260 1328,-260 1328,-208 16,-208"/>
</g>
<!-- IntroductionComponent -->
<g id="node1" class="node">
<title>IntroductionComponent</title>
<polygon fill="#ffffb3" stroke="#000000" points="1308.0407,-122 1157.9593,-122 1157.9593,-86 1308.0407,-86 1308.0407,-122"/>
<text text-anchor="middle" x="1233" y="-99.8" font-family="Times,serif" font-size="14.00" fill="#000000">IntroductionComponent</text>
</g>
<!-- GeneralComponentsModule -->
<g id="node9" class="node">
<title>GeneralComponentsModule</title>
<polygon fill="#8dd3c7" stroke="#000000" points="671.1288,-187 668.1288,-191 647.1288,-191 644.1288,-187 496.8712,-187 496.8712,-151 671.1288,-151 671.1288,-187"/>
<text text-anchor="middle" x="584" y="-164.8" font-family="Times,serif" font-size="14.00" fill="#000000">GeneralComponentsModule</text>
</g>
<!-- IntroductionComponent&#45;&gt;GeneralComponentsModule -->
<g id="edge1" class="edge">
<title>IntroductionComponent&#45;&gt;GeneralComponentsModule</title>
<path fill="none" stroke="#000000" d="M1161.855,-122.2222C1161.855,-140.8285 1161.855,-167 1161.855,-167 1161.855,-167 681.1364,-167 681.1364,-167"/>
<polygon fill="#000000" stroke="#000000" points="681.1364,-163.5001 671.1364,-167 681.1364,-170.5001 681.1364,-163.5001"/>
</g>
<!-- GlossaryLinkComponent -->
<g id="node2" class="node">
<title>GlossaryLinkComponent</title>
<polygon fill="#ffffb3" stroke="#000000" points="1139.5379,-122 982.4621,-122 982.4621,-86 1139.5379,-86 1139.5379,-122"/>
<text text-anchor="middle" x="1061" y="-99.8" font-family="Times,serif" font-size="14.00" fill="#000000">GlossaryLinkComponent</text>
</g>
<!-- GlossaryLinkComponent&#45;&gt;GeneralComponentsModule -->
<g id="edge2" class="edge">
<title>GlossaryLinkComponent&#45;&gt;GeneralComponentsModule</title>
<path fill="none" stroke="#000000" d="M1088.6729,-122.0336C1088.6729,-139.0597 1088.6729,-162 1088.6729,-162 1088.6729,-162 681.3312,-162 681.3312,-162"/>
<polygon fill="#000000" stroke="#000000" points="681.3312,-158.5001 671.3312,-162 681.3311,-165.5001 681.3312,-158.5001"/>
</g>
<!-- GlossaryComponent -->
<g id="node3" class="node">
<title>GlossaryComponent</title>
<polygon fill="#ffffb3" stroke="#000000" points="964.594,-122 833.406,-122 833.406,-86 964.594,-86 964.594,-122"/>
<text text-anchor="middle" x="899" y="-99.8" font-family="Times,serif" font-size="14.00" fill="#000000">GlossaryComponent</text>
</g>
<!-- GlossaryComponent&#45;&gt;GeneralComponentsModule -->
<g id="edge3" class="edge">
<title>GlossaryComponent&#45;&gt;GeneralComponentsModule</title>
<path fill="none" stroke="#000000" d="M920.9323,-122.2396C920.9323,-137.5706 920.9323,-157 920.9323,-157 920.9323,-157 681.2066,-157 681.2066,-157"/>
<polygon fill="#000000" stroke="#000000" points="681.2067,-153.5001 671.2066,-157 681.2066,-160.5001 681.2067,-153.5001"/>
</g>
<!-- GlossaryDetailComponent -->
<g id="node4" class="node">
<title>GlossaryDetailComponent</title>
<polygon fill="#ffffb3" stroke="#000000" points="815.8019,-122 650.1981,-122 650.1981,-86 815.8019,-86 815.8019,-122"/>
<text text-anchor="middle" x="733" y="-99.8" font-family="Times,serif" font-size="14.00" fill="#000000">GlossaryDetailComponent</text>
</g>
<!-- GlossaryDetailComponent&#45;&gt;GeneralComponentsModule -->
<g id="edge4" class="edge">
<title>GlossaryDetailComponent&#45;&gt;GeneralComponentsModule</title>
<path fill="none" stroke="#000000" d="M660.8317,-122.1061C660.8317,-122.1061 660.8317,-140.991 660.8317,-140.991"/>
<polygon fill="#000000" stroke="#000000" points="657.3318,-140.9909 660.8317,-150.991 664.3318,-140.991 657.3318,-140.9909"/>
</g>
<!-- NoteComponent -->
<g id="node5" class="node">
<title>NoteComponent</title>
<polygon fill="#ffffb3" stroke="#000000" points="632.0452,-122 523.9548,-122 523.9548,-86 632.0452,-86 632.0452,-122"/>
<text text-anchor="middle" x="578" y="-99.8" font-family="Times,serif" font-size="14.00" fill="#000000">NoteComponent</text>
</g>
<!-- NoteComponent&#45;&gt;GeneralComponentsModule -->
<g id="edge5" class="edge">
<title>NoteComponent&#45;&gt;GeneralComponentsModule</title>
<path fill="none" stroke="#000000" d="M578,-122.1061C578,-122.1061 578,-140.991 578,-140.991"/>
<polygon fill="#000000" stroke="#000000" points="574.5001,-140.9909 578,-150.991 581.5001,-140.991 574.5001,-140.9909"/>
</g>
<!-- TreeDiagramComponent -->
<g id="node6" class="node">
<title>TreeDiagramComponent</title>
<polygon fill="#ffffb3" stroke="#000000" points="505.9524,-122 350.0476,-122 350.0476,-86 505.9524,-86 505.9524,-122"/>
<text text-anchor="middle" x="428" y="-99.8" font-family="Times,serif" font-size="14.00" fill="#000000">TreeDiagramComponent</text>
</g>
<!-- TreeDiagramComponent&#45;&gt;GeneralComponentsModule -->
<g id="edge6" class="edge">
<title>TreeDiagramComponent&#45;&gt;GeneralComponentsModule</title>
<path fill="none" stroke="#000000" d="M501.331,-122.1061C501.331,-122.1061 501.331,-140.991 501.331,-140.991"/>
<polygon fill="#000000" stroke="#000000" points="497.8311,-140.9909 501.331,-150.991 504.8311,-140.991 497.8311,-140.9909"/>
</g>
<!-- ResourcesComponent -->
<g id="node7" class="node">
<title>ResourcesComponent</title>
<polygon fill="#ffffb3" stroke="#000000" points="332.3627,-122 193.6373,-122 193.6373,-86 332.3627,-86 332.3627,-122"/>
<text text-anchor="middle" x="263" y="-99.8" font-family="Times,serif" font-size="14.00" fill="#000000">ResourcesComponent</text>
</g>
<!-- ResourcesComponent&#45;&gt;GeneralComponentsModule -->
<g id="edge7" class="edge">
<title>ResourcesComponent&#45;&gt;GeneralComponentsModule</title>
<path fill="none" stroke="#000000" d="M326.8063,-122.0091C326.8063,-138.0494 326.8063,-159 326.8063,-159 326.8063,-159 486.5671,-159 486.5671,-159"/>
<polygon fill="#000000" stroke="#000000" points="486.5671,-162.5001 496.5671,-159 486.567,-155.5001 486.5671,-162.5001"/>
</g>
<!-- HelpIconComponent -->
<g id="node8" class="node">
<title>HelpIconComponent</title>
<polygon fill="#ffffb3" stroke="#000000" points="175.9201,-122 42.0799,-122 42.0799,-86 175.9201,-86 175.9201,-122"/>
<text text-anchor="middle" x="109" y="-99.8" font-family="Times,serif" font-size="14.00" fill="#000000">HelpIconComponent</text>
</g>
<!-- HelpIconComponent&#45;&gt;GeneralComponentsModule -->
<g id="edge8" class="edge">
<title>HelpIconComponent&#45;&gt;GeneralComponentsModule</title>
<path fill="none" stroke="#000000" d="M168.0847,-122.2667C168.0847,-140.5552 168.0847,-166 168.0847,-166 168.0847,-166 486.8105,-166 486.8105,-166"/>
<polygon fill="#000000" stroke="#000000" points="486.8106,-169.5001 496.8105,-166 486.8105,-162.5001 486.8106,-169.5001"/>
</g>
<!-- IntroductionComponent  -->
<g id="node10" class="node">
<title>IntroductionComponent </title>
<polygon fill="#fb8072" stroke="#000000" points="1320.04,-252 1165.96,-252 1165.96,-216 1320.04,-216 1320.04,-252"/>
<text text-anchor="middle" x="1243" y="-229.8" font-family="Times,serif" font-size="14.00" fill="#000000">IntroductionComponent </text>
</g>
<!-- GeneralComponentsModule&#45;&gt;IntroductionComponent  -->
<g id="edge9" class="edge">
<title>GeneralComponentsModule&#45;&gt;IntroductionComponent </title>
<path fill="none" stroke="#000000" stroke-dasharray="5,2" d="M671.4056,-172C849.3763,-172 1237.125,-172 1237.125,-172 1237.125,-172 1237.125,-205.7333 1237.125,-205.7333"/>
<polygon fill="#000000" stroke="#000000" points="1233.6251,-205.7333 1237.125,-215.7333 1240.6251,-205.7333 1233.6251,-205.7333"/>
</g>
<!-- GlossaryLinkComponent  -->
<g id="node11" class="node">
<title>GlossaryLinkComponent </title>
<polygon fill="#fb8072" stroke="#000000" points="1147.5372,-252 986.4628,-252 986.4628,-216 1147.5372,-216 1147.5372,-252"/>
<text text-anchor="middle" x="1067" y="-229.8" font-family="Times,serif" font-size="14.00" fill="#000000">GlossaryLinkComponent </text>
</g>
<!-- GeneralComponentsModule&#45;&gt;GlossaryLinkComponent  -->
<g id="edge10" class="edge">
<title>GeneralComponentsModule&#45;&gt;GlossaryLinkComponent </title>
<path fill="none" stroke="#000000" stroke-dasharray="5,2" d="M671.1858,-177C802.94,-177 1037.5771,-177 1037.5771,-177 1037.5771,-177 1037.5771,-205.9648 1037.5771,-205.9648"/>
<polygon fill="#000000" stroke="#000000" points="1034.0772,-205.9648 1037.5771,-215.9648 1041.0772,-205.9649 1034.0772,-205.9648"/>
</g>
<!-- GlossaryComponent  -->
<g id="node12" class="node">
<title>GlossaryComponent </title>
<polygon fill="#fb8072" stroke="#000000" points="968.0946,-252 833.9054,-252 833.9054,-216 968.0946,-216 968.0946,-252"/>
<text text-anchor="middle" x="901" y="-229.8" font-family="Times,serif" font-size="14.00" fill="#000000">GlossaryComponent </text>
</g>
<!-- GeneralComponentsModule&#45;&gt;GlossaryComponent  -->
<g id="edge11" class="edge">
<title>GeneralComponentsModule&#45;&gt;GlossaryComponent </title>
<path fill="none" stroke="#000000" stroke-dasharray="5,2" d="M671.2108,-182C757.6729,-182 877.3177,-182 877.3177,-182 877.3177,-182 877.3177,-205.8129 877.3177,-205.8129"/>
<polygon fill="#000000" stroke="#000000" points="873.8178,-205.8129 877.3177,-215.8129 880.8178,-205.813 873.8178,-205.8129"/>
</g>
<!-- GlossaryDetailComponent  -->
<g id="node13" class="node">
<title>GlossaryDetailComponent </title>
<polygon fill="#fb8072" stroke="#000000" points="815.3017,-252 646.6983,-252 646.6983,-216 815.3017,-216 815.3017,-252"/>
<text text-anchor="middle" x="731" y="-229.8" font-family="Times,serif" font-size="14.00" fill="#000000">GlossaryDetailComponent </text>
</g>
<!-- GeneralComponentsModule&#45;&gt;GlossaryDetailComponent  -->
<g id="edge12" class="edge">
<title>GeneralComponentsModule&#45;&gt;GlossaryDetailComponent </title>
<path fill="none" stroke="#000000" stroke-dasharray="5,2" d="M658.9567,-187.1061C658.9567,-187.1061 658.9567,-205.991 658.9567,-205.991"/>
<polygon fill="#000000" stroke="#000000" points="655.4568,-205.9909 658.9567,-215.991 662.4568,-205.991 655.4568,-205.9909"/>
</g>
<!-- NoteComponent  -->
<g id="node14" class="node">
<title>NoteComponent </title>
<polygon fill="#fb8072" stroke="#000000" points="629.0442,-252 516.9558,-252 516.9558,-216 629.0442,-216 629.0442,-252"/>
<text text-anchor="middle" x="573" y="-229.8" font-family="Times,serif" font-size="14.00" fill="#000000">NoteComponent </text>
</g>
<!-- GeneralComponentsModule&#45;&gt;NoteComponent  -->
<g id="edge13" class="edge">
<title>GeneralComponentsModule&#45;&gt;NoteComponent </title>
<path fill="none" stroke="#000000" stroke-dasharray="5,2" d="M573,-187.1061C573,-187.1061 573,-205.991 573,-205.991"/>
<polygon fill="#000000" stroke="#000000" points="569.5001,-205.9909 573,-215.991 576.5001,-205.991 569.5001,-205.9909"/>
</g>
<!-- TreeDiagramComponent  -->
<g id="node15" class="node">
<title>TreeDiagramComponent </title>
<polygon fill="#fb8072" stroke="#000000" points="498.953,-252 339.047,-252 339.047,-216 498.953,-216 498.953,-252"/>
<text text-anchor="middle" x="419" y="-229.8" font-family="Times,serif" font-size="14.00" fill="#000000">TreeDiagramComponent </text>
</g>
<!-- GeneralComponentsModule&#45;&gt;TreeDiagramComponent  -->
<g id="edge14" class="edge">
<title>GeneralComponentsModule&#45;&gt;TreeDiagramComponent </title>
<path fill="none" stroke="#000000" stroke-dasharray="5,2" d="M507.8521,-187.1061C507.8521,-206.3391 507.8521,-234 507.8521,-234 507.8521,-234 506.9676,-234 506.9676,-234"/>
<polygon fill="#000000" stroke="#000000" points="509.0078,-230.5001 499.0077,-234 509.0077,-237.5001 509.0078,-230.5001"/>
</g>
<!-- ResourcesComponent  -->
<g id="node16" class="node">
<title>ResourcesComponent </title>
<polygon fill="#fb8072" stroke="#000000" points="321.3631,-252 178.6369,-252 178.6369,-216 321.3631,-216 321.3631,-252"/>
<text text-anchor="middle" x="250" y="-229.8" font-family="Times,serif" font-size="14.00" fill="#000000">ResourcesComponent </text>
</g>
<!-- GeneralComponentsModule&#45;&gt;ResourcesComponent  -->
<g id="edge15" class="edge">
<title>GeneralComponentsModule&#45;&gt;ResourcesComponent </title>
<path fill="none" stroke="#000000" stroke-dasharray="5,2" d="M496.4705,-180C399.7202,-180 257.375,-180 257.375,-180 257.375,-180 257.375,-205.7181 257.375,-205.7181"/>
<polygon fill="#000000" stroke="#000000" points="253.8751,-205.718 257.375,-215.7181 260.8751,-205.7181 253.8751,-205.718"/>
</g>
<!-- HelpIconComponent  -->
<g id="node17" class="node">
<title>HelpIconComponent </title>
<polygon fill="#fb8072" stroke="#000000" points="160.4194,-252 23.5806,-252 23.5806,-216 160.4194,-216 160.4194,-252"/>
<text text-anchor="middle" x="92" y="-229.8" font-family="Times,serif" font-size="14.00" fill="#000000">HelpIconComponent </text>
</g>
<!-- GeneralComponentsModule&#45;&gt;HelpIconComponent  -->
<g id="edge16" class="edge">
<title>GeneralComponentsModule&#45;&gt;HelpIconComponent </title>
<path fill="none" stroke="#000000" stroke-dasharray="5,2" d="M496.6003,-173C357.521,-173 101.375,-173 101.375,-173 101.375,-173 101.375,-205.698 101.375,-205.698"/>
<polygon fill="#000000" stroke="#000000" points="97.8751,-205.698 101.375,-215.698 104.8751,-205.698 97.8751,-205.698"/>
</g>
</g>
</svg>
