<?xml version="1.0" encoding="UTF-8" standalone="no"?>
<!DOCTYPE svg PUBLIC "-//W3C//DTD SVG 1.1//EN"
 "http://www.w3.org/Graphics/SVG/1.1/DTD/svg11.dtd">
<!-- Generated by graphviz version 2.40.1 (20161225.0304)
 -->
<!-- Title: dependencies Pages: 1 -->
<svg width="997pt" height="284pt"
 viewBox="0.00 0.00 997.00 284.00" xmlns="http://www.w3.org/2000/svg" xmlns:xlink="http://www.w3.org/1999/xlink">
<g id="graph0" class="graph" transform="scale(1 1) rotate(0) translate(4 280)">
<title>dependencies</title>
<polygon fill="#ffffff" stroke="transparent" points="-4,4 -4,-280 993,-280 993,4 -4,4"/>
<text text-anchor="start" x="473.5091" y="-42.4" font-family="sans-serif" font-weight="bold" font-size="14.00" fill="#000000">Legend</text>
<polygon fill="#ffffb3" stroke="transparent" points="260.5,-10 260.5,-30 280.5,-30 280.5,-10 260.5,-10"/>
<text text-anchor="start" x="284.129" y="-15.4" font-family="sans-serif" font-size="14.00" fill="#000000"> &#160;Declarations</text>
<polygon fill="#8dd3c7" stroke="transparent" points="373.5,-10 373.5,-30 393.5,-30 393.5,-10 373.5,-10"/>
<text text-anchor="start" x="397.2251" y="-15.4" font-family="sans-serif" font-size="14.00" fill="#000000"> &#160;Module</text>
<polygon fill="#80b1d3" stroke="transparent" points="459.5,-10 459.5,-30 479.5,-30 479.5,-10 459.5,-10"/>
<text text-anchor="start" x="483.2812" y="-15.4" font-family="sans-serif" font-size="14.00" fill="#000000"> &#160;Bootstrap</text>
<polygon fill="#fdb462" stroke="transparent" points="556.5,-10 556.5,-30 576.5,-30 576.5,-10 556.5,-10"/>
<text text-anchor="start" x="580.1732" y="-15.4" font-family="sans-serif" font-size="14.00" fill="#000000"> &#160;Providers</text>
<polygon fill="#fb8072" stroke="transparent" points="652.5,-10 652.5,-30 672.5,-30 672.5,-10 652.5,-10"/>
<text text-anchor="start" x="676.2258" y="-15.4" font-family="sans-serif" font-size="14.00" fill="#000000"> &#160;Exports</text>
<g id="clust1" class="cluster">
<title>cluster_AppModule</title>
<polygon fill="none" stroke="#000000" stroke-dasharray="1,5" points="8,-70 8,-268 981,-268 981,-70 8,-70"/>
</g>
<g id="clust2" class="cluster">
<title>cluster_AppModule_declarations</title>
<polygon fill="none" stroke="#000000" points="689,-78 689,-130 973,-130 973,-78 689,-78"/>
</g>
<g id="clust7" class="cluster">
<title>cluster_AppModule_bootstrap</title>
<polygon fill="none" stroke="#000000" points="493,-208 493,-260 581,-260 581,-208 493,-208"/>
</g>
<g id="clust8" class="cluster">
<title>cluster_AppModule_providers</title>
<polygon fill="none" stroke="#000000" points="16,-78 16,-130 681,-130 681,-78 16,-78"/>
</g>
<!-- MyApp -->
<g id="node1" class="node">
<title>MyApp</title>
<polygon fill="#ffffb3" stroke="#000000" points="964.5529,-122 905.4471,-122 905.4471,-86 964.5529,-86 964.5529,-122"/>
<text text-anchor="middle" x="935" y="-99.8" font-family="Times,serif" font-size="14.00" fill="#000000">MyApp</text>
</g>
<!-- AppModule -->
<g id="node3" class="node">
<title>AppModule</title>
<polygon fill="#8dd3c7" stroke="#000000" points="578.6571,-187 575.6571,-191 554.6571,-191 551.6571,-187 495.3429,-187 495.3429,-151 578.6571,-151 578.6571,-187"/>
<text text-anchor="middle" x="537" y="-164.8" font-family="Times,serif" font-size="14.00" fill="#000000">AppModule</text>
</g>
<!-- MyApp&#45;&gt;AppModule -->
<g id="edge1" class="edge">
<title>MyApp&#45;&gt;AppModule</title>
<path fill="none" stroke="#000000" d="M935,-122.2843C935,-143.3211 935,-175 935,-175 935,-175 588.8407,-175 588.8407,-175"/>
<polygon fill="#000000" stroke="#000000" points="588.8408,-171.5001 578.8407,-175 588.8407,-178.5001 588.8408,-171.5001"/>
</g>
<!-- DecisionToolMenuComponent -->
<g id="node2" class="node">
<title>DecisionToolMenuComponent</title>
<polygon fill="#ffffb3" stroke="#000000" points="887.1965,-122 696.8035,-122 696.8035,-86 887.1965,-86 887.1965,-122"/>
<text text-anchor="middle" x="792" y="-99.8" font-family="Times,serif" font-size="14.00" fill="#000000">DecisionToolMenuComponent</text>
</g>
<!-- DecisionToolMenuComponent&#45;&gt;AppModule -->
<g id="edge2" class="edge">
<title>DecisionToolMenuComponent&#45;&gt;AppModule</title>
<path fill="none" stroke="#000000" d="M792,-122.0225C792,-139.3734 792,-163 792,-163 792,-163 588.8225,-163 588.8225,-163"/>
<polygon fill="#000000" stroke="#000000" points="588.8226,-159.5001 578.8225,-163 588.8225,-166.5001 588.8226,-159.5001"/>
</g>
<!-- IonicApp  -->
<g id="node4" class="node">
<title>IonicApp </title>
<polygon fill="#80b1d3" stroke="#000000" points="573.3734,-252 500.6266,-252 500.6266,-216 573.3734,-216 573.3734,-252"/>
<text text-anchor="middle" x="537" y="-229.8" font-family="Times,serif" font-size="14.00" fill="#000000">IonicApp </text>
</g>
<!-- AppModule&#45;&gt;IonicApp  -->
<g id="edge3" class="edge">
<title>AppModule&#45;&gt;IonicApp </title>
<path fill="none" stroke="#000000" stroke-dasharray="1,5" d="M537,-187.1061C537,-187.1061 537,-205.991 537,-205.991"/>
<polygon fill="#000000" stroke="#000000" points="533.5001,-205.9909 537,-215.991 540.5001,-205.991 533.5001,-205.9909"/>
</g>
<!-- DataProvider -->
<g id="node5" class="node">
<title>DataProvider</title>
<ellipse fill="#fdb462" stroke="#000000" cx="610" cy="-104" rx="62.5373" ry="18"/>
<text text-anchor="middle" x="610" y="-99.8" font-family="Times,serif" font-size="14.00" fill="#000000">DataProvider</text>
</g>
<!-- DataProvider&#45;&gt;AppModule -->
<g id="edge4" class="edge">
<title>DataProvider&#45;&gt;AppModule</title>
<path fill="none" stroke="#000000" d="M563.1548,-115.922C563.1548,-115.922 563.1548,-140.7669 563.1548,-140.7669"/>
<polygon fill="#000000" stroke="#000000" points="559.6549,-140.7669 563.1548,-150.7669 566.6549,-140.7669 559.6549,-140.7669"/>
</g>
<!-- FormProvider -->
<g id="node6" class="node">
<title>FormProvider</title>
<ellipse fill="#fdb462" stroke="#000000" cx="464" cy="-104" rx="65.4285" ry="18"/>
<text text-anchor="middle" x="464" y="-99.8" font-family="Times,serif" font-size="14.00" fill="#000000">FormProvider</text>
</g>
<!-- FormProvider&#45;&gt;AppModule -->
<g id="edge5" class="edge">
<title>FormProvider&#45;&gt;AppModule</title>
<path fill="none" stroke="#000000" d="M512.1928,-116.226C512.1928,-116.226 512.1928,-140.683 512.1928,-140.683"/>
<polygon fill="#000000" stroke="#000000" points="508.6929,-140.683 512.1928,-150.683 515.6929,-140.683 508.6929,-140.683"/>
</g>
<!-- ProjectActions -->
<g id="node7" class="node">
<title>ProjectActions</title>
<ellipse fill="#fdb462" stroke="#000000" cx="312" cy="-104" rx="68.3536" ry="18"/>
<text text-anchor="middle" x="312" y="-99.8" font-family="Times,serif" font-size="14.00" fill="#000000">ProjectActions</text>
</g>
<!-- ProjectActions&#45;&gt;AppModule -->
<g id="edge6" class="edge">
<title>ProjectActions&#45;&gt;AppModule</title>
<path fill="none" stroke="#000000" d="M312,-122.0225C312,-139.3734 312,-163 312,-163 312,-163 485.2065,-163 485.2065,-163"/>
<polygon fill="#000000" stroke="#000000" points="485.2066,-166.5001 495.2065,-163 485.2065,-159.5001 485.2066,-166.5001"/>
</g>
<!-- CustomRouterProvider -->
<g id="node8" class="node">
<title>CustomRouterProvider</title>
<ellipse fill="#fdb462" stroke="#000000" cx="125" cy="-104" rx="100.7423" ry="18"/>
<text text-anchor="middle" x="125" y="-99.8" font-family="Times,serif" font-size="14.00" fill="#000000">CustomRouterProvider</text>
</g>
<!-- CustomRouterProvider&#45;&gt;AppModule -->
<g id="edge7" class="edge">
<title>CustomRouterProvider&#45;&gt;AppModule</title>
<path fill="none" stroke="#000000" d="M125,-122.2843C125,-143.3211 125,-175 125,-175 125,-175 485.2279,-175 485.2279,-175"/>
<polygon fill="#000000" stroke="#000000" points="485.228,-178.5001 495.2279,-175 485.2279,-171.5001 485.228,-178.5001"/>
</g>
</g>
</svg>
